<svg viewBox="0 0 445 280" fill="none" xmlns="http://www.w3.org/2000/svg">
  <path d="M222.5 249.5h29.723l14.375 23h-88.196l14.375-23H222.5zm0 23h42.976c.177 0 .353.031.519.093l10.834 4c1.57.58 1.154 2.907-.52 2.907H168.691c-1.674 0-2.09-2.327-.52-2.907l10.834-4c.166-.062.342-.093.519-.093H222.5z" stroke="#464646"/>
  <path d="M1 6A5.5 5.5 0 016.5.5h432A5.5 5.5 0 01444 6v238a5.5 5.5 0 01-5.5 5.5H6.5A5.5 5.5 0 011 244V6z" stroke="#787878"/>
  <rect x="8.5" y="8.5" width="428" height="233" rx="1.5" stroke="#787878"/>
</svg>
