<svg width="15" height="20" viewBox="0 0 15 20" fill="none" xmlns="http://www.w3.org/2000/svg">
<path fill-rule="evenodd" clip-rule="evenodd" d="M2.55182 2.06057C2.68343 1.82389 2.9054 1.6507 3.16698 1.58061L7.46545 0.428837C8.34711 0.192597 9.71663 0.108708 11.0466 0.636204C12.4417 1.18957 13.7052 2.38598 14.2736 4.50731C14.842 6.62863 14.346 8.29649 13.4145 9.4733C12.8121 10.2342 12.0533 10.7607 11.3523 11.0943C10.8536 11.3317 10.3009 11.011 10.158 10.4775L10.0854 10.2064C9.94241 9.67298 10.2671 9.12682 10.7399 8.84135C11.0777 8.63738 11.4161 8.36436 11.6891 8.0195C12.1809 7.39827 12.5166 6.48219 12.1406 5.07884C11.7646 3.67549 11.0158 3.05001 10.2793 2.7579C9.47758 2.43992 8.59605 2.48698 8.05572 2.63176L5.82217 3.23024C5.2887 3.37318 4.97212 3.92151 5.11506 4.45498L7.54878 13.5377C7.69172 14.0712 8.24006 14.3878 8.77352 14.2448L9.16905 14.1389C10.0221 13.9103 10.731 14.8189 10.3018 15.5908L8.5693 18.7066C8.4377 18.9433 8.21573 19.1165 7.95415 19.1866L5.68809 19.7937C5.15463 19.9367 4.60629 19.6201 4.46335 19.0866L0.867926 5.66834C0.800729 5.41756 0.833703 5.15047 0.959876 4.92356L2.55182 2.06057Z" fill="#FF00B8"/>
</svg>
